<svg xmlns="http://www.w3.org/2000/svg" xmlns:xlink="http://www.w3.org/1999/xlink" width="250" zoomAndPan="magnify" viewBox="0 0 187.5 187.499992" height="250" preserveAspectRatio="xMidYMid meet" version="1.0"><defs><clipPath id="8850caf170"><path d="M 0 44.289062 L 187 44.289062 L 187 143.027344 L 0 143.027344 Z M 0 44.289062 " clip-rule="nonzero"/></clipPath></defs><g clip-path="url(#8850caf170)"><path fill="#ea4b71" d="M 167.316406 83.785156 C 158.144531 83.785156 150.4375 77.492188 148.253906 68.972656 L 125.691406 68.972656 C 120.878906 68.972656 116.773438 72.464844 115.984375 77.222656 L 115.171875 82.09375 C 114.40625 86.71875 112.074219 90.742188 108.777344 93.65625 C 112.074219 96.574219 114.40625 100.597656 115.171875 105.222656 L 115.984375 110.09375 C 116.773438 114.851562 120.878906 118.34375 125.691406 118.34375 L 128.566406 118.34375 C 130.753906 109.824219 138.460938 103.53125 147.632812 103.53125 C 158.503906 103.53125 167.316406 112.371094 167.316406 123.277344 C 167.316406 134.183594 158.503906 143.027344 147.632812 143.027344 C 138.460938 143.027344 130.753906 136.734375 128.566406 128.214844 L 125.691406 128.214844 C 116.070312 128.214844 107.855469 121.238281 106.273438 111.714844 L 105.464844 106.84375 C 104.675781 102.085938 100.570312 98.59375 95.757812 98.59375 L 87.960938 98.59375 C 85.773438 107.113281 78.066406 113.40625 68.894531 113.40625 C 59.722656 113.40625 52.015625 107.113281 49.832031 98.59375 L 38.75 98.59375 C 36.5625 107.113281 28.855469 113.40625 19.683594 113.40625 C 8.8125 113.40625 0 104.5625 0 93.65625 C 0 82.753906 8.8125 73.910156 19.683594 73.910156 C 28.855469 73.910156 36.5625 80.203125 38.75 88.722656 L 49.832031 88.722656 C 52.015625 80.203125 59.722656 73.910156 68.894531 73.910156 C 78.066406 73.910156 85.773438 80.203125 87.960938 88.722656 L 95.757812 88.722656 C 100.570312 88.722656 104.675781 85.230469 105.464844 80.472656 L 106.273438 75.601562 C 107.855469 66.078125 116.070312 59.101562 125.691406 59.101562 L 148.253906 59.101562 C 150.4375 50.582031 158.144531 44.289062 167.316406 44.289062 C 178.1875 44.289062 187 53.132812 187 64.039062 C 187 74.941406 178.1875 83.785156 167.316406 83.785156 Z M 167.316406 73.910156 C 172.75 73.910156 177.160156 69.488281 177.160156 64.039062 C 177.160156 58.585938 172.75 54.164062 167.316406 54.164062 C 161.882812 54.164062 157.472656 58.585938 157.472656 64.039062 C 157.472656 69.488281 161.882812 73.910156 167.316406 73.910156 Z M 19.683594 103.53125 C 25.121094 103.53125 29.527344 99.109375 29.527344 93.65625 C 29.527344 88.203125 25.121094 83.785156 19.683594 83.785156 C 14.25 83.785156 9.84375 88.203125 9.84375 93.65625 C 9.84375 99.109375 14.25 103.53125 19.683594 103.53125 Z M 78.738281 93.65625 C 78.738281 99.109375 74.332031 103.53125 68.894531 103.53125 C 63.460938 103.53125 59.054688 99.109375 59.054688 93.65625 C 59.054688 88.203125 63.460938 83.785156 68.894531 83.785156 C 74.332031 83.785156 78.738281 88.203125 78.738281 93.65625 Z M 157.472656 123.277344 C 157.472656 128.730469 153.066406 133.152344 147.632812 133.152344 C 142.195312 133.152344 137.789062 128.730469 137.789062 123.277344 C 137.789062 117.824219 142.195312 113.40625 147.632812 113.40625 C 153.066406 113.40625 157.472656 117.824219 157.472656 123.277344 Z M 157.472656 123.277344 " fill-opacity="1" fill-rule="evenodd"/></g></svg>